<svg width="29" height="29" viewBox="0 0 29 29" fill="none" xmlns="http://www.w3.org/2000/svg">
<path fill-rule="evenodd" clip-rule="evenodd" d="M14.5001 9.01317e-05C6.48558 9.01317e-05 0 6.48179 0 14.5002C0 17.5242 0.922183 20.3211 2.56025 22.7245C2.68364 22.9076 2.71702 23.137 2.65077 23.3476L1.1781 28.2754L6.00399 26.61V26.6103C6.21286 26.5405 6.4422 26.5698 6.62705 26.6894C8.88739 28.156 11.5935 29.0003 14.4998 29.0003C22.5183 29.0003 29 22.5186 29 14.5001C29 6.48169 22.5183 0 14.4998 0L14.5001 9.01317e-05ZM8.56421 6.32112L11.2036 10.6825L10.1046 11.7701L10.1048 11.7703C9.87474 12.0022 9.82847 12.3595 9.99157 12.6425C11.6685 15.5463 13.6553 17.8054 16.4373 19.0315C16.7101 19.1529 17.0292 19.0945 17.2416 18.8844L18.4083 17.7177L22.6678 20.3798C22.1962 21.4413 21.5813 22.0732 20.8781 22.4414C20.0633 22.868 19.0683 22.9487 17.9327 22.7133C15.6615 22.2424 12.9182 20.4575 10.6827 18.1706C8.44711 15.8839 6.71699 13.1032 6.27603 10.8409C6.05554 9.7098 6.15289 8.73576 6.57062 7.96357C6.93019 7.29857 7.54109 6.72937 8.56446 6.32097L8.56421 6.32112Z" fill="white"/>
</svg>
