<svg width="38" height="22" viewBox="0 0 38 22" fill="none" xmlns="http://www.w3.org/2000/svg">
<path d="M36.9913 19.8684C36.9465 19.7678 36.9047 19.6843 36.8659 19.6174C36.224 18.4125 34.9972 16.9336 33.1864 15.1802L33.1482 15.1401L33.129 15.1204L33.1096 15.1002H33.0902C32.2684 14.2837 31.7479 13.7348 31.53 13.4537C31.1312 12.9183 31.0419 12.3763 31.2598 11.8272C31.4138 11.4124 31.9922 10.5362 32.9936 9.19754C33.5204 8.4881 33.9376 7.9195 34.2457 7.49113C36.4677 4.41259 37.431 2.44536 37.1355 1.58868L37.0207 1.38848C36.9436 1.26795 36.7445 1.15769 36.4238 1.05714C36.1024 0.956795 35.6915 0.9402 35.1905 1.00707L29.6425 1.04701C29.5527 1.01382 29.4243 1.01692 29.2571 1.05714C29.0901 1.09736 29.0066 1.11754 29.0066 1.11754L28.91 1.16782L28.8334 1.22822C28.7692 1.26816 28.6985 1.33841 28.6214 1.43883C28.5447 1.53889 28.4805 1.65632 28.4292 1.79014C27.8252 3.40964 27.1384 4.91537 26.3677 6.30725C25.8925 7.13721 25.456 7.8565 25.0575 8.46553C24.6595 9.07434 24.3255 9.5229 24.056 9.81043C23.7861 10.0982 23.5426 10.3288 23.3238 10.503C23.1054 10.6772 22.9387 10.7509 22.8232 10.7239C22.7075 10.697 22.5985 10.6703 22.4954 10.6436C22.3157 10.523 22.1711 10.3591 22.0622 10.1517C21.9527 9.94425 21.879 9.68316 21.8405 9.36862C21.8022 9.05388 21.7795 8.78315 21.773 8.55553C21.767 8.3282 21.7698 8.00663 21.7828 7.59175C21.7962 7.17666 21.8022 6.89581 21.8022 6.74856C21.8022 6.23988 21.8117 5.68781 21.8308 5.09222C21.8502 4.49662 21.866 4.02471 21.8791 3.67706C21.8922 3.32905 21.8983 2.96087 21.8983 2.57271C21.8983 2.18455 21.8756 1.88014 21.8308 1.6592C21.7865 1.43855 21.7186 1.22436 21.6291 1.01671C21.539 0.809267 21.4071 0.648801 21.2341 0.534885C21.0608 0.42111 20.8453 0.330821 20.5888 0.263738C19.9081 0.103201 19.0412 0.0163577 17.9879 0.0028566C15.5992 -0.0238644 14.0644 0.136883 13.3837 0.484888C13.114 0.631924 12.87 0.832823 12.6518 1.08695C12.4205 1.38152 12.3883 1.54227 12.5552 1.56871C13.3259 1.68902 13.8715 1.97683 14.1926 2.43186L14.3083 2.67298C14.3983 2.84695 14.4882 3.15495 14.5782 3.59654C14.668 4.03814 14.7259 4.52665 14.7514 5.06177C14.8155 6.03898 14.8155 6.87549 14.7514 7.57136C14.6871 8.26751 14.6264 8.80945 14.5684 9.19761C14.5105 9.58577 14.4238 9.9003 14.3083 10.1411C14.1926 10.3821 14.1156 10.5293 14.077 10.5827C14.0385 10.6362 14.0064 10.6699 13.9809 10.6831C13.8139 10.7497 13.6403 10.7837 13.4607 10.7837C13.2807 10.7837 13.0625 10.6899 12.8057 10.5024C12.5489 10.315 12.2825 10.0575 12.0063 9.7295C11.7301 9.40146 11.4187 8.94306 11.0718 8.35421C10.7252 7.76537 10.3656 7.06943 9.9931 6.26639L9.68494 5.68401C9.4923 5.30936 9.22915 4.76383 8.89522 4.04792C8.56109 3.33173 8.26576 2.63895 8.00902 1.96973C7.90639 1.68867 7.75221 1.47469 7.54676 1.32744L7.45034 1.26704C7.38624 1.2136 7.28334 1.15685 7.14218 1.09638C7.00082 1.03597 6.85333 0.992657 6.69908 0.966006L1.42066 1.00595C0.881268 1.00595 0.515289 1.13329 0.322583 1.38763L0.24546 1.50795C0.206933 1.57496 0.1875 1.68199 0.1875 1.8293C0.1875 1.97655 0.226028 2.15727 0.30315 2.37125C1.0737 4.25859 1.91166 6.07878 2.81703 7.8321C3.7224 9.58542 4.50914 10.9978 5.1768 12.0679C5.84459 13.1387 6.52527 14.1494 7.21883 15.0994C7.9124 16.0498 8.37149 16.6588 8.59611 16.9264C8.821 17.1944 8.99765 17.3948 9.12605 17.5286L9.60775 18.0104C9.91597 18.3317 10.3686 18.7165 10.9658 19.1647C11.5631 19.6133 12.2245 20.0549 12.9501 20.4902C13.6758 20.9249 14.5201 21.2796 15.4835 21.5539C16.4466 21.8285 17.3841 21.9387 18.296 21.8855H20.5115C20.9608 21.8451 21.3012 21.6978 21.5326 21.4437L21.6092 21.3431C21.6608 21.2632 21.709 21.1391 21.7535 20.9721C21.7986 20.8048 21.821 20.6205 21.821 20.42C21.8079 19.8446 21.8499 19.326 21.946 18.8643C22.042 18.4027 22.1514 18.0547 22.2738 17.8203C22.3962 17.5862 22.5342 17.3886 22.6879 17.2284C22.8418 17.0678 22.9515 16.9706 23.0159 16.9371C23.0799 16.9034 23.131 16.8806 23.1695 16.8669C23.4777 16.7599 23.8405 16.8635 24.2582 17.1783C24.6757 17.4929 25.0673 17.8812 25.4335 18.3428C25.7996 18.8048 26.2394 19.3231 26.753 19.8985C27.2669 20.4741 27.7163 20.902 28.1014 21.1835L28.4866 21.4244C28.7438 21.5852 29.0777 21.7324 29.4888 21.8662C29.8991 22 30.2586 22.0334 30.5673 21.9666L35.4987 21.8864C35.9865 21.8864 36.3661 21.8022 36.6353 21.6352C36.905 21.4679 37.0653 21.2836 37.117 21.0832C37.1685 20.8825 37.1713 20.6548 37.1268 20.4002C37.0811 20.1463 37.0361 19.9688 36.9913 19.8684Z" fill="white"/>
</svg>
