<svg width="181" height="31" viewBox="0 0 181 31" fill="none" xmlns="http://www.w3.org/2000/svg">
<g clip-path="url(#clip0_395_9803)">
<path d="M50.8125 7.9741C50.2502 7.61042 49.633 7.33707 48.9838 7.16426C48.4009 7.002 47.7992 6.91543 47.1936 6.90674H41.9517V8.58024H43.2523V22.4229H41.9517V24.0235H47.5773V22.4229H44.9492V16.253H47.5614C49.2625 16.253 50.5799 15.8175 51.4759 14.9579C52.3718 14.0984 52.8277 12.9333 52.8277 11.495C52.8277 10.6752 52.6329 9.96724 52.2492 9.39091C51.875 8.82562 51.3857 8.34316 50.8125 7.9741ZM50.9519 12.5549C50.8256 12.9283 50.6142 13.2682 50.3339 13.5486C49.991 13.8808 49.5786 14.1351 49.1257 14.2938C48.6152 14.4876 47.9644 14.5861 47.1945 14.5861H44.9492V8.58024H47.2163C47.7489 8.57667 48.2784 8.66063 48.7831 8.82866C49.2291 8.97443 49.6478 9.19151 50.0224 9.47123C50.3541 9.72244 50.6304 10.0377 50.8344 10.3978C51.0277 10.7329 51.1311 11.1111 51.135 11.4967C51.1303 11.8567 51.0686 12.2138 50.9519 12.5549Z" fill="white"/>
<path d="M62.1436 16.1056C63.2847 15.8365 64.1739 15.3049 64.7877 14.5257C65.4182 13.7233 65.7382 12.704 65.7382 11.495C65.7382 10.6752 65.5442 9.96724 65.1596 9.39091C64.7854 8.82562 64.2962 8.34316 63.723 7.9741C63.1607 7.61042 62.5434 7.33707 61.8942 7.16426C61.3114 7.002 60.7096 6.91543 60.1041 6.90674H54.8621V8.58024H56.1636V22.4229H54.8621V24.0235H60.4878V22.4229H57.8597V16.253H59.8589C60.021 16.253 60.1847 16.2464 60.3459 16.234L64.074 24.0235H67.4074V22.4229H65.1403L62.1436 16.1056ZM63.8624 12.5549C63.736 12.9283 63.5246 13.2682 63.2444 13.5486C62.9522 13.8483 62.5458 14.0976 62.0361 14.2938C61.5265 14.4901 60.8749 14.5861 60.1049 14.5861H57.8597V8.58024H60.1268C60.6594 8.57667 61.1889 8.66063 61.6935 8.82866C62.1396 8.97443 62.5583 9.19151 62.9329 9.47123C63.2646 9.72244 63.5409 10.0377 63.7448 10.3978C63.9369 10.7344 64.0387 11.1138 64.0404 11.5C64.037 11.8586 63.977 12.2145 63.8624 12.5549Z" fill="white"/>
<path d="M84.5758 9.29239C83.7623 8.49554 82.8037 7.857 81.7504 7.41021C80.6586 6.94511 79.4811 6.70773 78.2919 6.71299C77.1077 6.70739 75.9354 6.94483 74.8493 7.41021C73.8007 7.85888 72.8467 8.49728 72.0364 9.29239C71.2294 10.0929 70.5858 11.0389 70.1405 12.0788C69.674 13.1569 69.4355 14.3175 69.4394 15.4896C69.433 16.6562 69.6693 17.8117 70.1338 18.8846C71.0329 20.9766 72.7214 22.6421 74.8426 23.5292C75.936 23.9812 77.1097 24.214 78.2952 24.214C79.4808 24.214 80.6545 23.9812 81.7479 23.5292C82.8026 23.0901 83.7618 22.455 84.5733 21.6586C85.3802 20.8612 86.0284 19.9217 86.4844 18.8888C86.9572 17.8165 87.198 16.6588 87.1914 15.4896C87.1972 14.3164 86.9565 13.1548 86.4844 12.078C86.0316 11.0393 85.3841 10.0942 84.5758 9.29239ZM78.2919 22.6167C77.3332 22.6212 76.3839 22.4306 75.5034 22.0569C73.7843 21.3335 72.4185 19.9782 71.6955 18.2785C71.3214 17.4037 71.1318 16.463 71.138 15.5136C71.1339 14.5673 71.3274 13.6304 71.7065 12.7611C72.0737 11.9148 72.596 11.1426 73.2472 10.4831C73.8989 9.82838 74.6738 9.30522 75.5286 8.94295C76.4087 8.5689 77.3578 8.37833 78.3162 8.38318C79.2692 8.37824 80.2128 8.56887 81.0871 8.94295C81.9393 9.30821 82.7132 9.83006 83.3676 10.4807C84.025 11.1373 84.5516 11.9097 84.9201 12.7578C85.296 13.6301 85.4898 14.5682 85.4898 15.5161C85.4898 16.4639 85.296 17.402 84.9201 18.2743C84.1767 19.9736 82.8001 21.3265 81.0745 22.0536C80.196 22.4277 79.2488 22.6194 78.2919 22.6167Z" fill="white"/>
<path d="M105.326 8.58024H107.241V22.4229H105.822H105.326H100.931V8.58024H102.046V6.90674H98.1925V8.58024H99.2336V22.4229H94.8238H93.9673H92.8355V8.58024H94.8238V6.90674H89.225V8.58024H91.1394V22.4229H89.225V24.0235H93.9673H94.8238H105.326H105.822H110.926V22.4229H108.938V8.58024H110.926V6.90674H105.326V8.58024Z" fill="white"/>
<path d="M125.612 14.3303L122.043 5.99756L121.959 6.1847C120.822 8.83448 119.641 11.5729 118.449 14.3303C117.308 16.9685 116.143 19.6912 114.986 22.4229H113.009V24.0236H118.289V22.4229H116.702C117.096 21.5195 117.483 20.6244 117.852 19.7591C118.239 18.8532 118.636 17.9373 119.032 17.0265H125.053C125.455 17.9464 125.847 18.8647 126.22 19.7591C126.586 20.6343 126.969 21.5303 127.359 22.4237H125.821V24.0244H131.077V22.4229H129.072C127.904 19.6981 126.751 17.0005 125.612 14.3303ZM119.724 15.4275C119.902 15.0176 120.095 14.5655 120.298 14.0819L120.374 13.8997L120.936 12.569C121.132 12.107 121.322 11.6631 121.5 11.2508C121.668 10.8599 121.797 10.5541 121.885 10.3333L121.982 9.99791C122 9.95319 122.015 9.90765 122.029 9.8621L122.186 10.3432L124.37 15.4275H119.724Z" fill="white"/>
<path d="M132.238 10.8069H133.86V8.58024H138.276V22.4229H136.214V24.0235H141.838V22.4229H139.972V8.58024H144.29V10.8069H145.986V6.90674H132.238V10.8069Z" fill="white"/>
<path d="M157.753 7.9741C157.191 7.61034 156.573 7.33699 155.924 7.16426C155.341 7.00194 154.739 6.91537 154.134 6.90674H148.892V8.58024H150.193V22.4229H148.892V24.0235H154.517V22.4229H151.893V16.253H154.506C156.208 16.253 157.524 15.8175 158.421 14.9579C159.318 14.0984 159.773 12.9333 159.773 11.495C159.773 10.6761 159.578 9.96724 159.193 9.39008C158.818 8.82469 158.328 8.34248 157.753 7.9741ZM157.893 12.5549C157.767 12.9285 157.555 13.2685 157.275 13.5486C156.932 13.8807 156.52 14.135 156.067 14.2938C155.556 14.4876 154.906 14.5861 154.136 14.5861H151.893V8.58024H154.16C154.693 8.57675 155.223 8.6607 155.728 8.82866C156.174 8.97461 156.592 9.19168 156.967 9.47123C157.298 9.72244 157.575 10.0377 157.779 10.3978C157.971 10.7342 158.073 11.1137 158.074 11.5C158.07 11.8588 158.008 12.2147 157.893 12.5549Z" fill="white"/>
<path d="M172.357 16.6323C172 16.2031 171.565 15.8444 171.074 15.5748C169.956 14.9844 168.88 14.6855 167.875 14.6855C167.806 14.6855 167.736 14.6855 167.67 14.6897H164.801V8.57859L166.115 8.56285V6.90674H161.801V8.58024H163.102V22.4229H161.801V24.0235H167.828C168.525 24.0254 169.219 23.9306 169.89 23.742C170.524 23.5681 171.123 23.2862 171.659 22.909C172.172 22.5456 172.596 22.0744 172.902 21.5294C173.211 20.9796 173.367 20.3279 173.367 19.5926C173.367 19.1222 173.319 18.4474 173.089 17.9C172.902 17.4476 172.656 17.0213 172.357 16.6323ZM170.517 21.6702C170.134 21.9306 169.708 22.1215 169.257 22.2341C168.752 22.3623 168.231 22.4258 167.709 22.4229H164.801V16.277H167.343C167.886 16.2767 168.427 16.3367 168.956 16.4559C169.451 16.5632 169.923 16.7542 170.352 17.0206C170.747 17.2682 171.078 17.604 171.318 18.0011C171.563 18.4301 171.686 18.9165 171.674 19.4088C171.683 19.8661 171.577 20.3184 171.365 20.7254C171.162 21.1018 170.871 21.4255 170.517 21.6702Z" fill="white"/>
<path d="M181 8.58024V6.90674H175.401V8.58024H177.316V22.4229H175.401V24.0235H181V22.4229H179.013V8.58024H181Z" fill="white"/>
<path d="M27.098 1.36961C27.4834 1.37202 27.8645 1.44982 28.2192 1.5985C28.5739 1.74717 28.8952 1.96378 29.1644 2.23576C29.4399 2.50143 29.6592 2.81833 29.8096 3.16812C29.9601 3.51791 30.0388 3.89365 30.041 4.27361C30.041 5.41219 29.7673 6.33713 29.4768 7.31755C28.884 9.31979 28.2173 11.5762 29.9151 15.5021C28.2123 19.4262 28.884 21.6794 29.4768 23.6825C29.7673 24.6612 30.041 25.587 30.041 26.7239C30.0279 27.4889 29.7142 28.219 29.166 28.7604C28.6178 29.3018 27.8779 29.6122 27.1022 29.6263C25.9486 29.6263 25.0107 29.3563 24.0182 29.0706C22.9342 28.7593 21.8133 28.4363 20.3968 28.4363C18.94 28.4363 17.4403 28.7775 15.7207 29.5045C14.0011 28.7775 12.5023 28.4363 11.0455 28.4363C9.6282 28.4363 8.5081 28.7593 7.42411 29.0706C6.4308 29.3563 5.49291 29.6263 4.33838 29.6263C3.95202 29.6242 3.56992 29.5465 3.2143 29.3975C2.85869 29.2485 2.53666 29.0313 2.26696 28.7584C1.99162 28.4927 1.77245 28.1758 1.62213 27.826C1.47181 27.4762 1.39332 27.1005 1.3912 26.7206C1.3912 25.5828 1.66493 24.6579 1.95545 23.6791C2.54824 21.6794 3.21493 19.4254 1.51799 15.4996C3.21745 11.5738 2.54824 9.31731 1.95545 7.31506C1.66493 6.33547 1.3912 5.41053 1.3912 4.27112C1.39365 3.89164 1.4723 3.51639 1.62261 3.16704C1.77293 2.8177 1.99192 2.50118 2.26696 2.23576C2.53628 1.96368 2.85768 1.74702 3.21254 1.59834C3.56739 1.44966 3.94864 1.37191 4.33419 1.36961C5.48871 1.36961 6.4266 1.64038 7.42075 1.92689C8.50559 2.24072 9.6282 2.5645 11.0481 2.5645C12.5032 2.5645 14.0003 2.22416 15.7165 1.49878C17.4336 2.22416 18.9307 2.56698 20.385 2.56698C21.8049 2.56698 22.9275 2.24321 24.0123 1.92937C25.0056 1.64287 25.9435 1.37209 27.098 1.37209M15.7165 0C13.7643 0.897615 12.2916 1.19654 11.0481 1.19654C8.56436 1.19654 6.99505 0 4.33419 0C1.98147 0 0.00408936 1.9509 0.00408936 4.27112C0.00408936 8.20771 2.72877 9.72305 0.00408936 15.4996C2.73296 21.2769 0.00828763 22.7865 0.00828763 26.7206C0.00828763 29.0392 1.98567 30.9909 4.33838 30.9909C6.99673 30.9909 8.5652 29.8018 11.0455 29.8018C12.2899 29.8018 13.7643 30.1007 15.7207 31C17.678 30.1007 19.1524 29.8018 20.3968 29.8018C22.8771 29.8018 24.4447 30.9909 27.1022 30.9909C29.4533 30.9909 31.4323 29.0416 31.4323 26.7206C31.4323 22.784 28.7093 21.2769 31.4382 15.4996C28.7093 9.72305 31.4323 8.20771 31.4323 4.27112C31.4323 1.95256 29.4558 0.000828058 27.1022 0.000828058C24.4422 0.000828058 22.8737 1.19654 20.385 1.19654C19.1423 1.19654 17.6704 0.897615 15.7165 0Z" fill="white"/>
<path d="M30.482 22.4802H0.971497V23.8482H30.482V22.4802Z" fill="white"/>
<path d="M30.482 25.5513H0.971497V26.9192H30.482V25.5513Z" fill="white"/>
<path d="M16.3808 4.49142C16.3808 5.07107 16.3808 5.6565 16.3808 6.20136C16.3849 6.27808 16.4108 6.35212 16.4555 6.415C17.5815 8.00783 19.0245 9.35792 20.6966 10.3831C21.7739 11.0455 22.9544 11.491 24.1174 11.9762C24.7261 12.2305 25.3281 12.3075 25.9932 12.3224C26.2879 12.3282 26.5809 12.3224 26.8723 12.3224V13.6216H25.5288V23.8415H5.90947V13.6092H4.55847V12.3191C4.99509 12.3191 5.43675 12.3133 5.86665 12.3191C6.24949 12.3179 6.62966 12.2561 6.99263 12.1361C7.40154 11.9522 7.79534 11.7775 8.21432 11.6169C10.9701 10.5611 13.2262 8.86937 14.9366 6.4829C15.0194 6.36012 15.0643 6.21631 15.0659 6.06887C15.0659 5.53892 15.0676 5.00896 15.0709 4.479L16.3808 4.49142ZM7.23445 13.6183V22.606C7.40238 22.5572 7.59298 22.5588 7.68702 22.4669C8.73777 21.4518 9.44207 20.1394 9.70219 18.7117C9.78616 18.272 9.81555 17.8223 9.87012 17.3743H11.1472C11.1346 19.249 10.5075 21.0694 9.35961 22.5638C10.0641 22.5638 10.7249 22.5712 11.384 22.558C11.5248 22.5534 11.6612 22.5082 11.7761 22.428C13.005 21.5325 13.9515 20.312 14.5059 18.9079C14.8703 18.0086 15.0264 17.0862 15.0676 16.1405C15.0861 15.6934 15.0793 14.0762 15.0558 13.6216L7.23445 13.6183ZM16.3867 13.6183C16.3867 14.0886 16.3783 15.6884 16.4396 16.1215C16.8334 18.9195 18.2692 21.0195 20.7831 22.3998C21.2029 22.6325 21.6303 22.5298 22.0955 22.5596C20.92 20.9921 20.3322 19.2781 20.3087 17.3719H21.6127C21.6127 17.4373 21.6186 17.487 21.6202 17.5375C21.695 19.4031 22.3675 21.0195 23.6682 22.3833C23.7343 22.4597 23.8212 22.5158 23.9187 22.5452C24.0161 22.5745 24.12 22.5758 24.2181 22.5489V13.6133C21.6076 13.6133 19.0341 13.6183 16.3867 13.6183ZM21.4767 12.3075C20.3615 11.7475 19.3088 11.0743 18.3355 10.2986C17.3626 9.51142 16.4865 8.61459 15.725 7.62645C14.9651 8.61758 14.0885 9.51624 13.1137 10.3036C12.1428 11.0781 11.0919 11.7498 9.97844 12.3075H21.4767ZM13.6318 22.5447H18.6311C17.4365 21.5869 16.49 20.3628 15.8694 18.9733C15.4028 20.3127 14.6396 21.5327 13.6351 22.5447" fill="white"/>
</g>
<defs>
<clipPath id="clip0_395_9803">
<rect width="181" height="31" fill="white"/>
</clipPath>
</defs>
</svg>
